<svg xmlns="http://www.w3.org/2000/svg" version="1.1" width="512" height="512">
    <path
        d="M0 0 C1.0928387 -0.00262956 1.0928387 -0.00262956 2.20775494 -0.00531223 C4.63807601 -0.00994748 7.0683366 -0.00751315 9.49866009 -0.00507832 C11.26313996 -0.00694753 13.02761942 -0.00924868 14.79209822 -0.01194364 C19.632665 -0.01805429 24.47321449 -0.01792891 29.31378424 -0.01674926 C34.53749108 -0.01654507 39.7611924 -0.02206574 44.98489666 -0.02680683 C55.21580302 -0.03510976 65.44670361 -0.03786151 75.67761306 -0.03841921 C83.99397697 -0.03889451 92.31033899 -0.04094996 100.62670231 -0.04411983 C124.20817795 -0.05292519 147.78964904 -0.05753936 171.37112633 -0.05678936 C172.64214725 -0.0567494 173.91316818 -0.05670945 175.22270489 -0.05666828 C176.49527858 -0.0566274 177.76785228 -0.05658652 179.07898881 -0.0565444 C199.70574276 -0.05613789 220.33247846 -0.0657089 240.95922712 -0.07980665 C262.14161725 -0.09416987 283.32399849 -0.10107687 304.50639361 -0.10021287 C316.39751881 -0.0998809 328.28862487 -0.10262818 340.17974567 -0.11339092 C350.3032957 -0.12249517 360.42681791 -0.12467176 370.55037025 -0.1178815 C375.71421253 -0.11461602 380.87800144 -0.1145607 386.04183865 -0.12323475 C390.77242549 -0.13109925 395.50291665 -0.12966878 400.23350116 -0.12095062 C401.94138765 -0.11941554 403.64928128 -0.12123209 405.35715935 -0.12681069 C422.9025155 -0.18030793 438.22587146 1.3456401 451.36210918 14.12863445 C460.54106407 24.71163597 462.9653401 35.57507441 462.87004375 49.32309246 C462.8746613 50.73130991 462.88101993 52.13952253 462.88895273 53.5477252 C462.90555221 57.3897055 462.8974429 61.23128509 462.88500786 65.07326627 C462.87592094 69.22740477 462.88994507 73.38147656 462.90092754 77.53560162 C462.91867864 85.66259517 462.91488802 93.78944063 462.90327698 101.91643989 C462.89422948 108.52364715 462.89302435 115.13081303 462.89737225 121.73802471 C462.89798518 122.67975655 462.89859811 123.6214884 462.89922962 124.59175757 C462.90050857 126.50509466 462.90180542 128.41843174 462.90311998 130.33176881 C462.91451579 148.25715985 462.90142776 166.18246896 462.87991852 184.10784656 C462.86204845 199.47598224 462.86515283 214.84399705 462.88359356 230.21213055 C462.90501793 248.07503959 462.91341725 265.93787689 462.9011445 283.80079699 C462.89987036 285.70694604 462.89861288 287.61309511 462.89737225 289.51924419 C462.89675514 290.4570131 462.89613804 291.394782 462.89550224 292.36096814 C462.89205404 298.95733367 462.89786624 305.55365356 462.90729046 312.15001202 C462.91852923 320.19295373 462.91543097 328.23573936 462.89416748 336.27866328 C462.88368229 340.37932936 462.87949179 344.47973557 462.89276409 348.58039951 C462.90474667 352.33954323 462.89802996 356.09818796 462.87685388 359.85728687 C462.87032024 361.8498556 462.88327129 363.8424594 462.89708281 365.83499098 C462.77977728 379.36327159 458.24566909 389.79931723 449.23710918 399.81613445 C438.68963854 409.89482862 425.89059372 411.43114303 412.07329082 411.35568523 C410.62400095 411.3551205 409.1747105 411.3554389 407.72542095 411.35657024 C403.80648836 411.35714232 399.88767906 411.34541152 395.96877503 411.33142233 C391.86750656 411.31889079 387.76623503 411.31774256 383.66495037 411.31537151 C375.9055179 411.30916386 368.14614202 411.29276272 360.38673443 411.27267253 C351.54998882 411.25029128 342.71324046 411.23931451 333.87647355 411.22928166 C315.70498019 411.20839584 297.53356438 411.17172855 279.36210918 411.12863445 C279.36210918 421.02863445 279.36210918 430.92863445 279.36210918 441.12863445 C283.53996075 441.0822282 287.71781231 441.03582195 292.02226543 440.98800945 C295.36705072 440.96226038 298.71180777 440.94057821 302.05663586 440.92163372 C305.58013287 440.90056723 309.10324094 440.87244682 312.62651348 440.82687664 C316.67513437 440.77484312 320.72334747 440.75564175 324.77226543 440.73800945 C326.02668941 440.71736431 327.2811134 440.69671917 328.57355022 440.67544842 C335.38907276 440.67370442 339.8932647 440.90065225 345.36210918 445.12863445 C349.33234736 450.11688242 350.00530948 454.20659383 349.74492168 460.54269695 C348.96998565 465.77746893 346.42456558 468.30965765 342.36210918 471.44113445 C338.40947931 473.66448876 335.36014997 474.25285589 330.86298275 474.26006222 C329.96123609 474.26390336 329.05948943 474.26774451 328.13041711 474.27170205 C326.6502826 474.27040233 326.6502826 474.27040233 325.14024639 474.26907635 C323.56325187 474.27353303 323.56325187 474.27353303 321.95439887 474.27807975 C318.42004692 474.28677397 314.88572881 474.28827561 311.351367 474.28976727 C308.8219168 474.29439492 306.29246729 474.2994195 303.76301861 474.30481243 C296.88277219 474.31794333 290.00253694 474.32441941 283.12228012 474.32882309 C278.8252357 474.33158673 274.52819353 474.33582431 270.23115063 474.34032726 C258.33110603 474.3525191 246.43106324 474.36281853 234.53101254 474.36620235 C233.38877645 474.3665317 233.38877645 474.3665317 232.22346489 474.36686771 C231.46016438 474.36708598 230.69686388 474.36730426 229.91043305 474.36752915 C228.36372614 474.36797262 226.81701922 474.36841918 225.27031231 474.36886883 C224.11948513 474.36920097 224.11948513 474.36920097 222.94540891 474.36953983 C210.51591026 474.37348719 198.08647025 474.39093968 185.65699425 474.41422835 C172.89220658 474.43795199 160.12744831 474.45040467 147.36263824 474.45157027 C140.19713856 474.45248647 133.0317153 474.45822487 125.86623669 474.47638988 C119.12589899 474.49341706 112.385731 474.49503593 105.64536953 474.48625088 C103.17183449 474.48547942 100.69829172 474.4898375 98.22477627 474.49970913 C94.84697976 474.51239878 91.46969941 474.50656754 88.09190655 474.49612713 C86.62515637 474.50821174 86.62515637 474.50821174 85.12877488 474.52054048 C78.95816983 474.47596218 72.56894815 474.1144637 67.8027041 469.67670083 C63.51694695 464.66797734 63.00462967 461.37756902 63.08867168 454.95675945 C63.5122241 450.57601729 64.60529739 448.59232106 67.36210918 445.12863445 C73.81941299 440.136471 80.0249559 440.607548 87.95195293 440.73800945 C89.90144596 440.74649914 89.90144596 440.74649914 91.89032269 440.75516033 C95.32484181 440.77034242 98.75867091 440.80955751 102.19291973 440.85397625 C105.7055998 440.89509117 109.21839604 440.91342579 112.73124981 440.93332195 C119.60880986 440.97393347 126.48448176 441.05223995 133.36210918 441.12863445 C133.36210918 431.22863445 133.36210918 421.32863445 133.36210918 411.12863445 C126.77677227 411.16005535 126.77677227 411.16005535 120.05839825 411.19211102 C105.53383665 411.258466 91.00926899 411.30280802 76.4845953 411.33588314 C67.68050413 411.35646646 58.87655706 411.38450568 50.0725584 411.43039227 C42.39470974 411.4703901 34.71696549 411.49609798 27.03901553 411.50498843 C22.97743562 411.51018138 18.91615429 411.52229727 14.85467052 411.55155468 C11.02314157 411.57892906 7.19203102 411.58703561 3.36041355 411.58106518 C1.96250596 411.58215567 0.56458276 411.58997771 -0.83323956 411.60545635 C-13.7333729 411.74116402 -24.42512433 409.2474875 -34.63789082 401.12863445 C-35.25277363 400.65039227 -35.86765644 400.17215008 -36.50117207 399.6794157 C-42.87560507 394.06821858 -48.00173612 384.50883517 -49.63789082 376.12863445 C-49.73084058 374.20135971 -49.76875611 372.27115814 -49.77211189 370.34164619 C-49.77656974 369.1526278 -49.78102758 367.9636094 -49.78562051 366.73856014 C-49.78543615 365.43090145 -49.78525179 364.12324277 -49.78506184 362.77595806 C-49.78836161 361.3737875 -49.79208742 359.97161789 -49.79620332 358.56944948 C-49.80621868 354.71178552 -49.80993937 350.85413711 -49.81259263 346.99646199 C-49.81649708 342.83744879 -49.82607537 338.6784479 -49.83480549 334.51944256 C-49.8545665 324.47277019 -49.86463592 314.42609682 -49.87353328 304.37940988 C-49.87791701 299.64740088 -49.88328362 294.91539301 -49.88852215 290.1833849 C-49.90553451 274.45139422 -49.92002827 258.71940424 -49.92727089 242.98740578 C-49.92918076 238.90500608 -49.9311011 234.82260639 -49.93305683 230.74020672 C-49.93354057 229.7255545 -49.93402431 228.71090229 -49.93452271 227.66550303 C-49.94282146 211.23201016 -49.96815573 194.79859012 -50.00063751 178.36512905 C-50.03371919 161.49047265 -50.05172068 144.61585326 -50.05491513 127.74116427 C-50.05707926 118.26780148 -50.06581369 108.79454488 -50.0913763 99.32121372 C-50.11309848 91.25250647 -50.12112627 83.18393119 -50.11140952 75.11519801 C-50.10686914 71.00038784 -50.10873563 66.88584988 -50.12817097 62.77107716 C-50.14583455 58.99872746 -50.14477942 55.22684791 -50.12927368 51.45449299 C-50.12578525 49.45461156 -50.14190006 47.45472501 -50.15887815 45.4549126 C-50.06765374 32.62026597 -46.27271256 22.69068537 -37.63789082 13.12863445 C-26.56971034 3.13373209 -14.61220699 0.00797205 0 0 Z M-13.95039082 37.12863445 C-21.5470988 46.13214021 -16.63789082 52.07014709 -16.63789082 68.12863445 C130.54210918 68.12863445 277.72210918 68.12863445 429.36210918 68.12863445 C431.67734008 44.0155273 431.67734008 44.0155273 426.36210918 36.12863445 C421.45035783 32.85413355 416.94824505 33.00318831 411.14186478 33 C410.42202269 32.99824696 409.70218061 32.99649393 408.96052513 32.99468777 C406.54184146 32.99002573 404.12321786 32.99249379 401.70453167 32.99492168 C399.95557669 32.99305382 398.20662214 32.99075322 396.45766824 32.98805636 C391.64627662 32.98192902 386.83490235 32.98207305 382.02350771 32.98325074 C376.83665391 32.9834545 371.64980572 32.97793831 366.46295452 32.97319317 C356.29948934 32.96488122 346.13602996 32.96213809 335.97256166 32.96158079 C327.713768 32.96110594 319.45497626 32.95905275 311.1961832 32.95588017 C287.79300491 32.94707254 264.38983121 32.94246102 240.98665125 32.94321064 C239.0935271 32.94327057 239.0935271 32.94327057 237.16215801 32.94333172 C235.89853872 32.9433726 234.63491943 32.94341348 233.33300864 32.9434556 C212.84494968 32.94386223 192.35690907 32.93428878 171.86885542 32.92019335 C150.84365613 32.90584222 129.81846579 32.89892245 108.79326147 32.89978713 C96.98441126 32.90011951 85.17558031 32.89735444 73.3667345 32.88660908 C63.31433444 32.87752073 53.26196237 32.87531512 43.20955998 32.8821185 C38.07876221 32.88539199 32.94801818 32.88541058 27.81722546 32.87676525 C23.12255504 32.86893596 18.42798133 32.87029493 13.73331337 32.87904938 C12.03282854 32.88059227 10.33233662 32.87873875 8.63186014 32.87318931 C6.32385388 32.86615466 4.01618923 32.87140272 1.70819473 32.87974548 C-0.21633928 32.87941943 -0.21633928 32.87941943 -2.17975277 32.87908679 C-6.87066429 33.21759439 -10.3655549 34.02823582 -13.95039082 37.12863445 Z M-16.63789082 101.12863445 C-16.63789082 170.09863445 -16.63789082 239.06863445 -16.63789082 310.12863445 C130.54210918 310.12863445 277.72210918 310.12863445 429.36210918 310.12863445 C429.36210918 241.15863445 429.36210918 172.18863445 429.36210918 101.12863445 C282.18210918 101.12863445 135.00210918 101.12863445 -16.63789082 101.12863445 Z M-16.63789082 343.12863445 C-19.55313437 368.55176738 -19.55313437 368.55176738 -12.63789082 376.12863445 C-9.12816506 378.65565889 -5.67689498 378.38132445 -1.44699001 378.38590336 C-0.71817153 378.38940943 0.01064695 378.39291551 0.76155084 378.39652783 C3.21684755 378.40587147 5.67190862 378.40091093 8.12721539 378.39605999 C9.90005758 378.39979476 11.67289813 378.40439558 13.44573605 378.40979064 C18.3278105 378.42205746 23.20981661 378.42175585 28.09190297 378.41940188 C33.35308441 378.41899465 38.61424367 378.4300239 43.87541485 378.43951702 C54.18674269 378.45614794 64.49804766 378.4616275 74.80938779 378.46274178 C83.18834516 378.46369122 91.56729498 378.4677963 99.94624996 378.47414303 C123.68736444 378.49176078 147.42846081 378.50098101 171.16958188 378.49948208 C172.45015202 378.49940217 173.73072216 378.49932226 175.05009747 378.49923992 C176.33222595 378.49915816 177.61435443 378.4990764 178.93533529 378.49899216 C199.72094128 378.498179 220.50647485 378.51732274 241.29205988 378.54551665 C262.62007471 378.57421873 283.94805419 378.58805844 305.27608883 378.5863291 C317.25600467 378.5856643 329.23584459 378.59119623 341.21574306 378.6126852 C351.41458375 378.63086177 361.61331409 378.63527336 371.81216393 378.62166636 C377.0179473 378.615119 382.22351875 378.61508311 387.42928219 378.63237286 C392.19255541 378.6480306 396.95544741 378.64531502 401.71871091 378.62780459 C403.44412577 378.62471855 405.16956857 378.62842705 406.89495049 378.63952474 C409.23694015 378.6535937 411.57758291 378.64310202 413.9195261 378.62641239 C415.22131742 378.62684713 416.52310875 378.62728186 417.86434829 378.62772977 C421.99961475 378.03766882 424.13864119 376.74196996 427.36210918 374.12863445 C433.10592786 365.51290644 429.36210918 353.48345083 429.36210918 343.12863445 C282.18210918 343.12863445 135.00210918 343.12863445 -16.63789082 343.12863445 Z M166.36210918 411.12863445 C166.36210918 421.02863445 166.36210918 430.92863445 166.36210918 441.12863445 C192.76210918 441.12863445 219.16210918 441.12863445 246.36210918 441.12863445 C246.36210918 431.22863445 246.36210918 421.32863445 246.36210918 411.12863445 C219.96210918 411.12863445 193.56210918 411.12863445 166.36210918 411.12863445 Z "
        fill="#DB2626" transform="translate(49.63789081573486,18.871365547180176)" />
    <path
        d="M0 0 C3.82362952 2.15595613 5.8470156 4.34067307 7.75 8.375 C9.35179082 14.47070396 8.97679191 18.82895141 5.75 24.375 C0.97171946 30.34132671 -4.46027028 35.7337072 -9.85986328 41.13012695 C-11.10755997 42.38286156 -11.10755997 42.38286156 -12.38046265 43.66090393 C-15.1077868 46.39766324 -17.8388063 49.13069637 -20.5703125 51.86328125 C-21.51599353 52.81038765 -22.46158902 53.75757947 -23.40710068 54.70485497 C-28.35107956 59.65804954 -33.297598 64.60869119 -38.24658203 69.55688477 C-42.84949403 74.15919427 -47.44677809 78.76707343 -52.04150593 83.37755233 C-55.99990284 87.34903172 -59.96215266 91.31663912 -63.92741573 95.28126305 C-66.29010259 97.6436955 -68.65074208 100.00808177 -71.00845718 102.37548256 C-73.63389666 105.0107034 -76.26557679 107.63953202 -78.89892578 110.2668457 C-79.6741156 111.04765503 -80.44930542 111.82846436 -81.24798584 112.63293457 C-86.78996144 118.14264118 -91.08957595 122.10298586 -99.25 122.375 C-105.49921167 121.34982391 -109.25391763 119.03670433 -113.15625 114.09375 C-115.62747542 110.21039577 -115.90675832 105.83939289 -115.25 101.375 C-112.83887839 94.95521323 -108.06016947 90.76352414 -103.26806641 86.00488281 C-101.88957268 84.61850365 -101.88957268 84.61850365 -100.48323059 83.20411682 C-97.97153382 80.67878644 -95.45049189 78.16298631 -92.92721224 75.64923573 C-90.28383505 73.01347338 -87.64780737 70.37037699 -85.0105896 67.72845459 C-80.58242822 63.29484193 -76.14799382 58.8675774 -71.70996094 54.44384766 C-66.58230287 49.33252495 -61.46555523 44.21047097 -56.35432112 39.08272862 C-51.96059006 34.67537684 -47.56103118 30.27390673 -43.15656221 25.87728572 C-40.52811136 23.25350685 -37.90171749 20.62775518 -35.28056717 17.99668121 C-32.35915928 15.06498583 -29.42562927 12.14572083 -26.49072266 9.22753906 C-25.62509201 8.35583572 -24.75946136 7.48413239 -23.86759949 6.58601379 C-23.06571701 5.79259079 -22.26383453 4.99916779 -21.43765259 4.18170166 C-20.74559534 3.49077549 -20.05353809 2.79984932 -19.34050941 2.08798599 C-13.57008138 -2.64036506 -6.65005119 -2.97208992 0 0 Z "
        fill="#DC2525" transform="translate(309.25,164.625)" />
    <path
        d="M0 0 C8.28693128 7.61559478 16.26615555 15.54747203 24.23291016 23.49560547 C26.77304513 26.02594432 29.32365994 28.54541245 31.87451172 31.06494141 C33.5027723 32.68667846 35.13039904 34.30905219 36.75732422 35.93212891 C37.51463837 36.67709625 38.27195251 37.4220636 39.05221558 38.18960571 C43.6726936 42.82966398 48.1441933 47.39316507 49.38623047 54.05322266 C49.35722656 55.24238281 49.35722656 55.24238281 49.32763672 56.45556641 C49.32634766 57.25091797 49.32505859 58.04626953 49.32373047 58.86572266 C48.35220303 64.52858978 45.23044614 68.43346877 41.28613281 72.43286133 C40.83197998 72.89709 40.37782715 73.36131866 39.90991211 73.83961487 C38.4189541 75.35886967 36.91712522 76.86674895 35.41357422 78.37353516 C34.36303343 79.43372943 33.31271358 80.49414266 32.26260376 81.55476379 C30.06384284 83.77144019 27.85901713 85.98187614 25.65039062 88.1887207 C22.83420482 91.00460186 20.0392182 93.84054576 17.24915123 96.68227673 C15.08717059 98.87776487 12.91153603 101.05932847 10.73195267 103.23732948 C9.69617999 104.27662031 8.66521649 105.32072898 7.63941574 106.36986351 C-3.24795679 117.48148706 -3.24795679 117.48148706 -11.10986328 118.39306641 C-17.39868413 117.98708556 -21.82059132 116.19296599 -26.10986328 111.39306641 C-28.53065941 106.97210894 -29.51303856 102.83682735 -28.73486328 97.83056641 C-25.43174047 87.16657914 -13.41372709 78.58297 -5.67236328 70.89306641 C-4.35507269 69.58080055 -3.03801342 68.26830246 -1.72119141 66.95556641 C1.47992282 63.76538135 4.68415537 60.5783599 7.89013672 57.39306641 C3.97480445 52.68951687 -0.11287437 48.2817649 -4.49658203 44.01416016 C-5.69413248 42.83411059 -6.89138956 41.65376325 -8.08837891 40.47314453 C-9.94818549 38.64434702 -11.81023138 36.81801579 -13.67749023 34.99682617 C-15.49903083 33.2177524 -17.31087002 31.42924505 -19.12158203 29.63916016 C-19.67786789 29.10149521 -20.23415375 28.56383026 -20.80729675 28.00987244 C-24.75527843 24.08806793 -27.66117572 20.27113437 -28.54345703 14.61181641 C-28.55196807 8.68813183 -28.24991247 4.98068848 -24.10986328 0.39306641 C-16.59715634 -6.55618752 -8.11372243 -6.17964835 0 0 Z "
        fill="#DC2525" transform="translate(358.10986328125,168.60693359375)" />
    <path
        d="M0 0 C4.95949982 3.2344564 7.75865498 6.54014818 9.375 12.1875 C10.19588276 17.3619645 9.17849916 21.20586921 6.875 25.875 C4.56395635 28.93614919 1.91117127 31.54241745 -0.85546875 34.19140625 C-1.60588943 34.93333725 -2.35631012 35.67526825 -3.12947083 36.43968201 C-5.51000716 38.7868548 -7.91061337 41.11220015 -10.3125 43.4375 C-11.93822521 45.03310419 -13.56258939 46.63009635 -15.18554688 48.22851562 C-19.14976111 52.12687183 -23.13063184 56.00755901 -27.125 59.875 C-23.13580569 64.67392472 -18.95172434 69.15363685 -14.484375 73.5078125 C-13.23669619 74.73799431 -11.98930873 75.96847168 -10.7421875 77.19921875 C-8.80106297 79.10928923 -6.85769255 81.01689905 -4.90917969 82.91943359 C-3.01079628 84.77547211 -1.12200435 86.64084649 0.765625 88.5078125 C1.64060638 89.35486252 1.64060638 89.35486252 2.53326416 90.21902466 C7.17402803 94.83016075 9.15535464 98.64000228 9.25 105.3125 C9.1427084 110.30155947 8.35770064 113.11734931 4.875 116.875 C0.65583567 120.34409068 -2.64679247 121.78214902 -8.125 121.875 C-17.1282322 120.61505456 -22.60675522 114.21881177 -28.65234375 108.0390625 C-29.73218306 106.95564037 -30.81314089 105.87333204 -31.89515686 104.79208374 C-34.14927171 102.53329866 -36.39301762 100.26486683 -38.62915039 97.98828125 C-41.49087428 95.07543693 -44.37210638 92.18288805 -47.26062679 89.2966404 C-49.48947286 87.06697769 -51.71040898 84.82957592 -53.92877388 82.58948898 C-54.98870564 81.52003807 -56.05043987 80.45237036 -57.11402702 79.38655472 C-58.59796206 77.89609355 -60.07159677 76.39615654 -61.54272461 74.89306641 C-62.38161728 74.04273834 -63.22050995 73.19241028 -64.08482361 72.3163147 C-67.16506278 68.63044068 -68.41196139 65.21322057 -68.4375 60.4375 C-68.45425781 59.71691406 -68.47101563 58.99632812 -68.48828125 58.25390625 C-67.62226041 52.58286658 -64.31349936 48.68456608 -60.3815918 44.72753906 C-59.67850388 44.01415627 -59.67850388 44.01415627 -58.96121216 43.28636169 C-57.42309805 41.73007575 -55.87429042 40.18499484 -54.32421875 38.640625 C-53.24392266 37.55576338 -52.16399787 36.47053191 -51.08442688 35.38494873 C-48.82568682 33.11729711 -46.56138811 30.85538078 -44.29321289 28.59716797 C-41.39288015 25.70833802 -38.50873073 22.80393353 -35.62877178 19.89480972 C-33.4044112 17.65207334 -31.17078114 15.41875207 -28.93436623 13.18804169 C-27.86720966 12.12103809 -26.80313623 11.05094133 -25.74228477 9.97766876 C-24.25648158 8.47692689 -22.7584069 6.98957854 -21.2565918 5.50488281 C-20.40848434 4.65694153 -19.56037689 3.80900024 -18.68656921 2.93536377 C-13.13180439 -1.53253666 -6.68065914 -2.40503729 0 0 Z "
        fill="#DC2525" transform="translate(173.125,165.125)" />
</svg>